<svg
		 enable-background="new 0 0 512 512"
		 height="512"
		 width="512"
		 viewBox="0 0 512 512"
		 xmlns="http://www.w3.org/2000/svg">
	<g>
		<g>
			<path
				d="m512 72.638v366.724c0 5.687-4.615 10.302-10.302 10.302h-491.396c-5.687 0-10.302-4.615-10.302-10.302v-366.724c0-5.687 4.615-10.302 10.302-10.302h491.396c5.687 0 10.302 4.615 10.302 10.302z"
				fill="#e8e6ed"/>
			<path
				d="m512 72.638v366.724c0 5.687-4.615 10.302-10.302 10.302h-123.395c113.979-98.66 111.445-328.061 108.756-387.327h14.639c5.687-.001 10.302 4.614 10.302 10.301z"
				fill="#d1d0d8"/>
			<path
				d="m512 72.638v54.631h-512v-54.631c0-5.687 4.615-10.302 10.302-10.302h491.396c5.687 0 10.302 4.615 10.302 10.302z"
				fill="#898993"/>
			<path
				d="m512 72.638v54.631h-24.549c.845-28.289.237-51.19-.391-64.932h14.639c5.686-.001 10.301 4.614 10.301 10.301z"
				fill="#717177"/>
			<g fill="#d1d0d8">
				<path
					d="m41.256 102.531c-.023 0-.045 0-.068 0l-.116-.001c-4.267-.037-7.696-3.526-7.659-7.793.037-4.244 3.489-7.66 7.724-7.66h.068l.116.001c4.267.037 7.696 3.526 7.659 7.793-.036 4.245-3.489 7.66-7.724 7.66z"/>
				<path
					d="m64.582 102.531c-.023 0-.045 0-.068 0l-.116-.001c-4.267-.037-7.696-3.526-7.659-7.793.037-4.244 3.489-7.66 7.724-7.66h.068l.116.001c4.267.037 7.696 3.526 7.659 7.793-.036 4.245-3.488 7.66-7.724 7.66z"/>
				<path
					d="m87.909 102.531c-.023 0-.045 0-.068 0l-.116-.001c-4.267-.037-7.696-3.526-7.659-7.793.037-4.244 3.489-7.66 7.724-7.66h.068l.116.001c4.267.037 7.696 3.526 7.659 7.793-.036 4.245-3.489 7.66-7.724 7.66z"/>
				<path
					d="m470.862 102.53h-14.377c-4.268 0-7.726-3.459-7.726-7.726 0-4.268 3.459-7.726 7.726-7.726h14.377c4.268 0 7.726 3.459 7.726 7.726.001 4.267-3.458 7.726-7.726 7.726z"/>
			</g>
			<rect x="0" y="62" width="100%" height="388" rx="10" fill="#fff" opacity="0.5"/>
		</g>
		<g transform="translate(0 -10)">
			<rect x="61" y="165" width="390" height="244" rx="13"  stroke-width="48px" stroke="#000" fill="none" opacity="0.25"/>
			<rect x="61" y="165" width="390" height="244" rx="13"  stroke-width="30px" stroke="#000" fill="none" opacity="0.50"/>
			<rect x="61" y="165" width="390" height="244" rx="13"  stroke-width="12px" stroke="#000" fill="none" opacity="1"/>
			<path
				d="m448.294 177.892v218.398c0 5.687-4.615 10.302-10.302 10.302h-363.984c-5.687 0-10.302-4.615-10.302-10.302v-218.398c0-5.687 4.615-10.302 10.302-10.302h363.983c5.687 0 10.303 4.615 10.303 10.302z"
				fill="#22d0ff"/>
			<path
				d="m448.294 177.892v218.398c0 5.687-4.615 10.302-10.302 10.302h-76.759c45.647-67.734 62.594-164.53 68.332-239.002h8.427c5.686 0 10.302 4.615 10.302 10.302z"
				fill="#06b9ff"/>
			<path
				d="m448.294 344.925v51.365c0 5.687-4.615 10.302-10.302 10.302h-21.819c12.825-18.842 23.405-39.724 32.121-61.667z"
				fill="#089bff"/>
			<path
				d="m448.294 357.802v38.488c0 5.687-4.615 10.302-10.302 10.302h-363.984c-5.687 0-10.302-4.615-10.302-10.302v-39.188l92.912-82.806c3.822-3.4 9.57-3.482 13.495-.185l66.21 55.764c3.183 2.679 7.665 3.183 11.353 1.277l32.008-16.493c3.74-1.916 8.272-1.38 11.456 1.37l21.078 18.224 31.317 27.084c4.079 3.534 10.199 3.307 14.021-.515l25.425-25.425c3.039-3.039 7.654-3.863 11.559-2.081z"
				fill="#2fd92d"/>
			<path
				d="m448.294 357.802v38.488c0 5.687-4.615 10.302-10.302 10.302h-363.984c-5.687 0-10.302-4.615-10.302-10.302v-7.768c123.261-9.189 202.935-34.408 248.511-54.27l31.317 27.084c4.079 3.534 10.199 3.307 14.021-.515l25.425-25.425c3.039-3.039 7.654-3.863 11.559-2.081l49.263 22.437z"
				fill="#1fbf33"/>
			<path
				d="m448.294 357.802v38.488c0 5.687-4.615 10.302-10.302 10.302h-21.819c10.693-15.71 19.831-32.852 27.63-50.839z"
				fill="#12af21"/>
			<g>
				<g transform="translate(-78 -50) scale(1.2)">
					<circle cx="448.294" cy="278.963" fill="#83f6ff" r="33.608" stroke-width="8px" stroke="#333"/>
					<path
						d="m444.804 298.8c-2.074 0-4.143-.83-5.665-2.471-2.903-3.128-2.72-8.016.407-10.919l6.947-6.448-6.947-6.448c-3.128-2.902-3.311-7.791-.407-10.918 2.902-3.129 7.792-3.31 10.919-.407l13.049 12.111c1.575 1.462 2.471 3.514 2.471 5.663s-.895 4.201-2.471 5.663l-13.049 12.111c-1.488 1.38-3.374 2.063-5.254 2.063z"
						fill="#089bff"/>
				</g>
			</g>
			<g>
				<g transform="translate(-25 -50) scale(1.2)">
					<circle cx="63.706" cy="278.963" fill="#83f6ff" r="33.608"  stroke-width="8px" stroke="#333"/>
					<path
						d="m67.196 298.8c-1.881 0-3.767-.683-5.254-2.063l-13.049-12.111c-1.575-1.462-2.47-3.514-2.47-5.663s.895-4.201 2.47-5.663l13.049-12.111c3.128-2.902 8.017-2.721 10.919.407 2.903 3.127 2.721 8.016-.407 10.918l-6.947 6.448 6.947 6.448c3.128 2.902 3.31 7.792.407 10.919-1.522 1.641-3.591 2.471-5.665 2.471z"
						fill="#089bff"/>
				</g>
			</g>
			<circle cx="345.649" cy="246.752" fill="#ff9700" r="32.654"/>
			<path
				d="m378.303 246.749c0 18.038-14.618 32.657-32.657 32.657-4.038 0-7.912-.731-11.476-2.081 12.372-4.646 21.17-16.586 21.17-30.576s-8.798-25.919-21.17-30.565c3.565-1.35 7.438-2.081 11.476-2.081 18.039-.001 32.657 14.618 32.657 32.646z"
				fill="#ff7300" />
			<g fill="#e8e6ed">
				<path
					d="m326.052 253.081h-108.169c-4.267 0-7.726-3.459-7.726-7.726s3.459-7.726 7.726-7.726h108.169c4.268 0 7.726 3.459 7.726 7.726s-3.458 7.726-7.726 7.726z"/>
				<path
					d="m284.072 229.973h-24.209c-4.267 0-7.726-3.459-7.726-7.726s3.459-7.726 7.726-7.726h24.209c4.268 0 7.726 3.459 7.726 7.726s-3.458 7.726-7.726 7.726z"/>
				<path
					d="m399.195 247.243h-32.966c-4.268 0-7.726-3.459-7.726-7.726s3.459-7.726 7.726-7.726h32.966c4.268 0 7.726 3.459 7.726 7.726s-3.458 7.726-7.726 7.726z"/>
			</g>
		</g>
	</g>
</svg>