<svg xmlns="http://www.w3.org/2000/svg" viewBox="0 0 64 64" width="64" height="64">
  <path fill="#fff" d="M9.6 14.1h44.8v39.2H9.6z" />
  <path fill="#d3d3d3" d="M9.6 33.8v19.6h31.7C36.7 40.7 24.2 33.8 9.6 33.8zM47.1 53.4h7.3V31c-7 0-13.7 2.4-19.2 6.7 5.6 4.8 9.8 9 11.9 15.7z"/>
  <path fill="#1d83d4" d="M48.8 3h-5.6v5.6H26.4v5.6h22.4z"/>
  <path fill="#1d83d4" d="M57.2 8.6h-2.8v44.7h-7.3v.1h-5.9v-.1H9.6V14.2h11.2V3h-5.6v5.6H6.8C5.2 8.6 4 9.9 4 11.4v44.8C4 57.8 5.2 59 6.8 59h50.4c1.5 0 2.8-1.3 2.8-2.8V11.4c0-1.6-1.2-2.8-2.8-2.8z"/>
  <circle fill="#d3d3d3" cx="44.6" cy="24" r="4.2" />
</svg>
