<svg xmlns="http://www.w3.org/2000/svg" x="0px" y="0px" viewBox="0 0 512 512">
	<g transform="translate(0 -10)">
		<path fill="#71e4ff" d="M507 126v285c0 7-6 13-14 13H19c-8 0-14-6-14-13V126c0-7 6-13 14-13h474c8 0 14 6 14 13z"/>
		<path fill="#2fd92d" d="M507 361v50c0 7-6 13-14 13H19c-8 0-14-6-14-13v-51l122-108c5-5 12-5 17-1l86 73c4 4 10 4 15 2l42-22c5-2 11-1 15 2l27 24 41 35c5 5 13 4 18-1l33-33c5-4 11-5 16-2l70 32z"/>
		<path fill="#1fbf33" d="M507 361v50c0 7-6 13-14 13H19c-8 0-14-6-14-13v-10c161-12 265-45 324-71l41 35c5 5 13 4 18-1l34-33c4-4 10-5 15-2l64 29 6 3z"/>
		<circle cx="372.8" cy="215.8" r="42.6" fill="#ff0"/>
		<path fill="none" stroke="#565656" stroke-miterlimit="10" stroke-width="14" d="M507 126v285c0 7-6 13-14 13H19c-8 0-14-6-14-13V126c0-7 6-13 14-13h474c8 0 14 6 14 13h0z"/>
	</g>
</svg>
